<svg width="79" height="41" viewBox="0 0 79 41" fill="none" xmlns="http://www.w3.org/2000/svg">
<path d="M21.6677 7.6788C21.8865 8.01838 21.8646 8.19717 21.795 8.57944C22.0165 8.64343 22.2389 8.72034 22.4668 8.75568L22.5787 8.66714C27.6686 8.37724 31.4117 8.87174 35.3743 12.3813C38.4689 15.1222 39.897 19.1027 40.1296 23.1386C40.405 27.9074 39.6622 32.4668 36.3797 36.1649C34.5518 38.2237 32.4518 39.3626 29.8323 40.0918C28.9991 40.3237 28.1196 40.5518 27.2529 40.6028C26.1007 40.671 24.936 40.647 23.782 40.6463C22.7176 40.6455 21.617 40.6981 20.5584 40.5795C19.8127 40.4962 19.089 40.2554 18.3765 40.0303C15.9584 39.2665 14.833 38.6476 12.9375 36.9527C9.88677 34.2262 8.44864 30.2062 8.24914 26.1997C8.01033 21.401 9.0878 16.7324 12.3758 13.0989C14.4993 10.7523 17.3219 9.45111 20.3933 8.90926L21.1024 8.77886C21.2224 8.38226 21.4471 8.0255 21.6677 7.6788Z" fill="#F8D0B3"/>
<path d="M22.5787 8.66716C27.6686 8.37726 31.4117 8.87176 35.3743 12.3813C38.4689 15.1222 39.897 19.1027 40.1296 23.1386C40.405 27.9074 39.6622 32.4668 36.3797 36.1649C34.5518 38.2237 32.4518 39.3626 29.8323 40.0919C28.9991 40.3237 28.1196 40.5518 27.2529 40.6028C26.1007 40.6711 24.936 40.6471 23.782 40.6463C22.7176 40.6456 21.617 40.6981 20.5584 40.5795C19.8127 40.4963 19.089 40.2554 18.3765 40.0303C15.9584 39.2665 14.833 38.6476 12.9375 36.9527C9.88677 34.2262 8.44864 30.2062 8.24914 26.1997C8.01033 21.401 9.0878 16.7324 12.3758 13.0989C14.4993 10.7523 17.3219 9.45112 20.3933 8.90928L21.1024 8.77888L21.0759 8.99706C21.0475 9.49471 21.0273 9.99455 20.9858 10.4913C20.6611 10.5007 20.3533 10.496 20.0414 10.5981L19.4797 10.6983C18.8003 10.9113 18.1206 11.1278 17.4731 11.426L17.313 11.2406C16.5274 11.528 15.4344 12.0667 14.8812 12.7084C14.9244 12.8896 14.9135 12.8905 14.8313 13.0599C13.2971 14.2209 11.7265 16.2993 11.0743 18.122C9.85083 21.2794 9.70895 23.9339 9.92421 27.2606C9.93321 27.2854 9.94379 27.3102 9.95114 27.3357C10.1254 27.9426 10.0905 28.6839 10.2374 29.3239C10.7994 31.8268 12.0967 34.1047 13.9629 35.8648C13.9841 35.8851 14.006 35.9046 14.0271 35.9248C14.0897 35.9856 14.0677 35.9623 14.1176 36.0426C17.1129 38.5643 20.0344 39.142 23.8526 39.1555C24.8674 39.1593 25.8994 39.1923 26.9112 39.106C29.5399 38.8817 31.8862 38.1006 33.9289 36.3998C34.3061 35.9436 34.7681 35.5474 35.1702 35.1108C35.6584 34.5811 36.0867 34.0116 36.5423 33.4549C37.0168 32.6994 37.3968 31.8973 37.7453 31.0773C37.9165 30.2745 38.2051 29.4972 38.3759 28.6929C38.6561 27.3724 38.6696 26.0152 38.6854 24.6714C38.5527 23.7876 38.5423 22.867 38.4262 21.9735C38.1541 21.2554 38.1423 20.27 37.8289 19.4269C37.49 17.987 36.5753 16.3098 35.6958 15.124C33.9189 12.7279 30.8077 10.8903 27.8433 10.4825C27.0856 10.3783 23.0899 10.014 22.6499 10.3459C22.4877 9.7967 22.445 9.32223 22.4668 8.75569L22.5787 8.66716Z" fill="#F6A393"/>
<path d="M14.1177 36.0426C17.113 38.5643 20.0345 39.142 23.8527 39.1555C24.8675 39.1592 25.8995 39.1923 26.9113 39.106C29.54 38.8816 31.8863 38.1006 33.929 36.3997L34.0152 36.5903C33.5527 36.8717 33.1634 37.264 32.717 37.5687C32.2682 37.8755 31.6651 38.0766 31.1641 38.2882C30.2906 38.6566 29.3916 39.0054 28.4581 39.1878C27.0035 39.4714 25.5768 39.3941 24.1073 39.4406C23.3489 39.4654 22.5701 39.5621 21.8135 39.5171C20.8527 39.4601 18.9525 39.1817 18.0323 38.9147C17.5332 38.7698 17.0664 38.4277 16.5983 38.2011C16.1028 37.9611 15.5808 37.763 15.0708 37.5552L15.2038 37.5221C15.6362 37.7502 16.2109 37.88 16.6768 38.0563L16.7367 38.0241C16.2948 37.5522 15.5927 37.3053 15.0506 36.9549C14.7376 36.7524 14.1977 36.4207 14.1177 36.0426Z" fill="#E58573"/>
<path d="M14.8813 12.7084C14.9245 12.8896 14.9136 12.8905 14.8314 13.0599C13.2972 14.2208 11.7266 16.2993 11.0744 18.122C9.8509 21.2794 9.70903 23.9339 9.92428 27.2606C9.92008 27.3357 9.89292 27.3964 9.86831 27.467C9.49407 26.944 9.91603 24.5026 9.65876 24.2033C9.41252 24.3653 9.59161 24.5146 9.43412 24.7217C9.33681 24.3383 9.85893 20.5091 9.99796 20.044C10.2191 19.3037 10.591 18.5599 10.8809 17.839C11.3485 16.12 13.4417 13.6979 14.8813 12.7084Z" fill="#E58573"/>
<path d="M21.1024 8.77887L21.0758 8.99705C21.0475 9.49471 21.0273 9.99454 20.9858 10.4913C20.6611 10.5007 20.3533 10.496 20.0414 10.5981L19.4797 10.6983C18.8003 10.9113 18.1206 11.1278 17.4731 11.426L17.313 11.2406C17.9386 10.9653 20.0486 9.46537 20.3932 8.90927L21.1024 8.77887Z" fill="#E58573"/>
<path d="M19.4798 10.6983C19.4375 10.5748 19.4384 10.6386 19.4869 10.5072C20.1562 10.1171 20.6392 9.62615 21.0759 8.99704C21.0476 9.4947 21.0274 9.99453 20.9859 10.4913C20.6612 10.5007 20.3534 10.4959 20.0415 10.5981L19.4798 10.6983Z" fill="#9E6859"/>
<path d="M38.6855 24.6714C38.9976 25.2019 38.8115 26.8232 38.8558 27.5105C38.6885 28.912 38.4202 29.7028 38.0107 31.021L37.7454 31.0773C37.9166 30.2745 38.2052 29.4972 38.376 28.6929C38.6562 27.3724 38.6697 26.0152 38.6855 24.6714Z" fill="#E58573"/>
<path d="M38.4263 21.9734L38.5287 21.7979L38.6344 21.8114C38.9555 22.6209 39.1176 26.7009 38.8557 27.5105C38.8115 26.8232 38.9975 25.2019 38.6854 24.6714C38.5528 23.7876 38.5424 22.867 38.4263 21.9734Z" fill="#FA9B95"/>
<path d="M36.5425 33.4549C37.017 32.6994 37.397 31.8973 37.7454 31.0773L38.0108 31.021C37.7436 31.8688 37.4647 32.7602 36.8541 33.4227C36.8215 33.4579 36.7901 33.4939 36.7581 33.53L36.5425 33.4549Z" fill="#E58573"/>
<path d="M21.6677 7.6788C21.8865 8.01838 21.8646 8.19717 21.795 8.57944C22.0165 8.64343 22.239 8.72034 22.4668 8.75568C22.445 9.32221 22.4877 9.79668 22.65 10.3459C22.8545 10.7714 23.0197 11.1508 23.4028 11.4483C23.5426 11.4778 23.6224 11.4903 23.7674 11.4774C24.0444 11.1281 24.4484 10.7092 24.8528 10.5241C25.1001 10.4109 25.2489 10.4402 25.4853 10.5339C25.3239 10.8592 25.1546 11.1791 24.9865 11.5009C25.0409 11.7286 25.0361 11.8582 25.2604 11.9917C25.9816 12.4207 26.9191 11.7404 27.3528 12.7833C27.3636 12.8093 27.3729 12.8359 27.3831 12.8622C27.403 13.0904 27.454 13.2818 27.2934 13.476C27.1683 13.6274 26.9986 13.7641 26.8521 13.8954C26.3329 13.901 25.653 13.6112 25.1715 13.7998C25.0691 13.9419 25.003 14.0303 24.8473 14.1138C24.6234 14.1038 24.4876 14.0148 24.3009 13.9046C23.2516 13.8112 22.5616 13.9115 21.6916 13.1596C21.3077 12.6796 21.2134 12.2678 21.1075 11.6796C21.0509 11.2844 21.0183 10.8889 20.9858 10.4913C21.0273 9.99453 21.0475 9.4947 21.0759 8.99704L21.1024 8.77886C21.2224 8.38226 21.4471 8.0255 21.6677 7.6788Z" fill="#7A493A"/>
<path d="M21.795 8.57944C22.0165 8.64344 22.2389 8.72034 22.4668 8.75568C22.4449 9.32221 22.4877 9.79668 22.6499 10.3459C22.8544 10.7714 23.0197 11.1508 23.4028 11.4483C23.5425 11.4778 23.6224 11.4903 23.7674 11.4775C23.7507 11.5064 23.7364 11.5369 23.7172 11.5643C23.5844 11.7538 23.4932 11.8052 23.2745 11.856C22.9956 11.7897 22.8308 11.6794 22.6354 11.468C21.7385 10.498 21.7242 9.8288 21.795 8.57944Z" fill="#9E6859"/>
<path d="M23.9465 12.335C24.3082 12.0769 24.6303 11.7674 24.9867 11.5009C25.0411 11.7286 25.0362 11.8582 25.2606 11.9917C25.9818 12.4207 26.9193 11.7404 27.3529 12.7833C27.3637 12.8094 27.3731 12.8359 27.3832 12.8622C26.2697 12.6063 25.0775 12.5516 23.9465 12.335Z" fill="#9E6859"/>
<path d="M20.0415 10.5981C20.3535 10.496 20.6612 10.5007 20.9859 10.4913C21.0184 10.8889 21.051 11.2844 21.1076 11.6796C21.2135 12.2678 21.3078 12.6796 21.6917 13.1596C22.5618 13.9115 23.2517 13.8112 24.301 13.9046C24.4877 14.0148 24.6235 14.1038 24.8474 14.1138C25.0031 14.0303 25.0692 13.9419 25.1716 13.7999C25.6531 13.6112 26.333 13.901 26.8522 13.8954C26.5883 14.3609 26.1081 14.7444 25.6039 14.9129C25.3502 14.9977 24.6822 15.1516 24.4484 15.04L24.4452 14.9086L24.6003 14.7985L24.7321 14.8681C24.829 14.8319 24.8947 14.8201 24.9982 14.8344C25.3658 14.8854 25.5404 14.9205 25.8562 14.6955C26.1022 14.5201 26.4388 14.3566 26.5946 14.0953C26.5666 14.0841 26.5394 14.0707 26.5107 14.0617C26.0177 13.9078 24.9788 14.4212 24.5113 14.6281L24.3926 14.6815C24.393 14.5672 24.4065 14.6197 24.356 14.5231C23.7022 14.6025 23.0121 14.6882 22.3698 14.4927C21.7061 14.2908 21.4321 13.8558 21.1173 13.2833L21.058 13.3189C21.0261 14.0583 21.3873 14.14 21.7684 14.6844C21.7473 14.6835 21.726 14.6851 21.7052 14.6819C21.456 14.6433 21.1332 14.4056 21.0002 14.2002C20.4905 13.4132 20.4699 12.5954 20.6577 11.7097L20.6628 11.814C20.7596 11.4006 20.8345 11.0551 20.7977 10.6273C20.5834 10.6729 20.4006 10.7162 20.1855 10.6477C20.1371 10.6324 20.0895 10.6146 20.0415 10.5981Z" fill="#F6A393"/>
<path d="M14.8812 12.7084C15.4344 12.0667 16.5274 11.528 17.313 11.2406L17.4731 11.426C16.5298 11.9047 15.6822 12.4269 14.8313 13.0599C14.9135 12.8905 14.9244 12.8896 14.8812 12.7084Z" fill="#FA9B95"/>
<path d="M32.9545 28.8475C33.5806 28.7514 34.4082 28.8527 34.9539 29.1821C35.2781 29.3772 35.5384 29.6683 35.6111 30.0494C35.6738 30.3765 35.5735 30.7156 35.3813 30.9827C34.9216 31.6212 34.1709 31.7518 33.452 31.8876C32.72 31.9679 31.9485 31.8493 31.3473 31.3961C31.0337 31.1598 30.7821 30.8207 30.7453 30.42C30.7171 30.1132 30.8193 29.8191 31.0171 29.5842C31.4912 29.0223 32.2679 28.9165 32.9545 28.8475Z" fill="#FA9B95"/>
<path d="M15.638 28.9157C16.3091 28.8655 16.8853 28.8827 17.5179 29.1603C17.9337 29.3426 18.355 29.6413 18.5168 30.0839C18.6192 30.3645 18.5971 30.6646 18.4611 30.9295C18.1275 31.5792 17.3608 31.7968 16.7164 31.9956C16.6703 32.0039 16.6245 32.0144 16.5781 32.0211C15.5934 32.1667 14.7696 31.7615 14.0003 31.1996C13.9458 31.0435 13.8919 30.886 13.8564 30.7239C13.7746 30.3518 13.7948 29.9564 14.0231 29.6375C14.3816 29.1371 15.0735 29.0245 15.638 28.9157Z" fill="#FA9B95"/>
<path d="M30.469 25.0001C30.6556 24.9873 30.849 24.9753 31.0354 24.9956C31.4908 25.0451 31.9597 25.2612 32.2389 25.6325C32.6734 26.2088 32.5858 26.8037 32.4754 27.4632C32.1438 27.9044 31.8076 28.1745 31.3327 28.4423C30.9914 28.5481 30.7041 28.5451 30.3585 28.4446C29.9579 28.3283 29.6623 28.0882 29.4658 27.7198C29.2239 27.2666 29.1673 26.7039 29.3225 26.214C29.5226 25.5815 29.9107 25.3039 30.469 25.0001Z" fill="#261A19"/>
<path d="M31.7184 25.6288C31.8084 25.6648 31.8949 25.7091 31.9769 25.7608C32.1818 25.8899 32.2529 26.0377 32.3012 26.2665C32.2205 26.5164 32.1615 26.5419 31.9647 26.7039C31.7914 26.6874 31.6522 26.6484 31.4882 26.5906C31.4137 26.5006 31.3349 26.4481 31.329 26.325C31.3149 26.0279 31.5308 25.8284 31.7184 25.6288Z" fill="#FDF7F7"/>
<path d="M17.9466 25.1524C18.6459 25.0586 19.1508 25.2657 19.7487 25.598C19.9626 26.2245 20.1616 26.8315 19.9311 27.4917C19.7325 28.0604 19.3167 28.3726 18.7987 28.6337C18.4718 28.7019 18.2976 28.7057 17.9779 28.5946C17.5119 28.4326 17.1622 28.1662 16.9521 27.7108C16.653 27.0618 16.7662 26.5246 16.987 25.8831C17.2902 25.598 17.5988 25.3782 17.9466 25.1524Z" fill="#261A19"/>
<path d="M19.1802 26.0084C19.4369 25.9319 19.7081 26.0722 19.7948 26.325C19.8815 26.5786 19.7528 26.8555 19.5032 26.9523C19.3324 27.0183 19.1391 26.986 18.9996 26.8675C18.8599 26.7489 18.7965 26.5636 18.8342 26.3843C18.8719 26.205 19.0047 26.0609 19.1802 26.0084Z" fill="#FDF7F7"/>
<path d="M23.215 28.6171C23.6284 28.8122 24.0155 29.1198 24.4439 29.2774C24.948 29.4634 25.5302 28.9788 25.9891 28.8032C26.1812 28.7289 26.2849 28.7064 26.4746 28.7829C26.5651 29.0898 26.3857 29.3914 26.2588 29.666C26.092 29.8596 25.9248 30.0246 25.6879 30.1304C25.1226 30.3833 24.3891 30.3705 23.8218 30.1304C23.5106 29.9984 23.2404 29.7838 23.1172 29.4604C22.9914 29.1311 23.0799 28.9225 23.215 28.6171Z" fill="#261A19"/>
<path d="M17.9926 22.8993C18.1951 22.9045 18.299 22.9113 18.4828 23.0103C18.5524 23.4965 17.1049 23.5325 16.6967 24.3323C16.6521 24.3706 16.5603 24.3841 16.5031 24.4013C16.354 24.3046 16.3573 24.3016 16.302 24.1312C16.3259 24.018 16.3506 23.9152 16.4133 23.8154C16.7643 23.2564 17.393 23.0629 17.9926 22.8993Z" fill="#261A19"/>
<path d="M30.9029 22.795C31.246 22.8137 31.5944 22.9053 31.9124 23.0321C32.292 23.1829 32.9152 23.4732 33.0332 23.9144C33.0862 24.1117 32.9744 24.2093 32.872 24.3631C32.541 24.12 32.2576 23.7111 31.8709 23.5543C31.5164 23.4102 31.1035 23.432 30.763 23.2549C30.7291 23.0283 30.7901 22.9878 30.9029 22.795Z" fill="#261A19"/>
<path d="M56.1714 8.24221C56.6276 8.24273 57.0972 8.21925 57.5519 8.24581C61.1262 8.62087 64.0403 8.9146 66.9769 11.2756C69.4873 13.294 70.9826 15.6501 71.9459 18.7031C72.2813 19.7673 72.5589 20.8234 72.679 21.9367C73.1914 26.6739 72.3398 31.7585 69.284 35.5392C68.0137 37.1103 65.7742 38.8291 63.8947 39.6334C62.8361 40.0859 61.4623 40.3957 60.3189 40.509C58.7066 40.6696 54.0864 40.7393 52.6248 40.3995C52.2302 40.3079 51.8363 40.1151 51.4529 39.9801C49.5495 39.3108 47.8748 38.538 46.3113 37.2333C43.1428 34.5908 41.61 30.5573 41.2664 26.5269C40.871 21.8887 41.8486 16.8387 44.942 13.2258C48.2207 9.3962 51.3749 8.6388 56.1714 8.24221ZM59.8455 19.4506C59.4321 19.161 59.0945 18.8826 58.6345 18.6578C57.3868 18.3183 55.6439 18.4744 54.508 19.1268C53.4614 19.728 52.7231 20.8447 52.4313 22.0035C52.0261 23.6166 51.9773 27.5585 52.8499 29.0373C53.3256 29.8446 54.1501 30.3555 55.0482 30.5724C56.2817 30.871 57.6172 30.6054 58.6908 29.9459C59.9025 29.2016 60.553 28.1887 60.8651 26.8075C60.9739 26.325 61.0797 24.3976 61.184 24.1898C61.133 22.4176 60.8921 20.9373 59.8455 19.4506Z" fill="#9ECEB9"/>
<path d="M56.8669 17.2315C57.2195 16.9947 58.4237 17.1561 58.8657 17.2433C60.1869 17.504 61.5651 18.3763 62.3237 19.4943C63.7177 21.5495 63.8197 25.7031 63.3035 28.0657C63.2743 28.2045 63.239 28.3425 63.1985 28.4791L63.1152 28.5159C62.8399 29.6135 62.5428 30.3098 61.8645 31.2198L61.5861 31.1208L61.6439 31.045C63.323 28.7965 63.4633 24.9183 62.8804 22.2571C62.7228 21.539 62.2411 20.7432 62.1556 20.131L62.2396 20.082C62.5105 20.4071 62.596 20.9964 62.7948 21.392L62.8616 21.2667C62.4122 19.8275 61.7497 18.7302 60.373 18.0179C59.6174 17.6273 58.8304 17.6429 58.1251 17.3046C58.0358 17.2618 58.0794 17.2767 57.9623 17.2679L57.8033 17.4013L57.8925 17.2766L57.8025 17.393C57.8475 17.3992 57.8918 17.4049 57.9368 17.4115C58.0764 17.4324 58.1964 17.4705 58.33 17.5157C58.7659 17.6634 59.5814 17.6034 59.8185 18.0533C59.8298 18.0747 59.8358 18.0987 59.844 18.1215C59.6872 18.1487 59.6632 18.1274 59.5169 18.0767C59.3661 18.0244 59.2761 17.992 59.1155 18.024C59.5431 18.2816 60.1156 18.4253 60.5853 18.605C60.607 18.5947 60.628 18.5842 60.6498 18.5742C60.7503 18.5271 60.7113 18.5442 60.8299 18.5042C61.1645 19.0284 61.9966 20.8037 62.0146 21.3792C61.5306 20.5128 61.2268 19.6078 60.4142 18.9589C59.2063 17.995 57.2068 17.7742 55.7197 17.9361L55.8345 17.8199C55.6012 17.7261 55.0265 17.8734 54.7917 17.9744C54.1667 18.2435 53.6722 18.929 52.9947 19.024C52.8087 19.2147 52.6661 19.3484 52.3788 19.3434C52.3495 19.343 52.321 19.3388 52.2925 19.3364C52.4155 19.1548 52.5468 18.9861 52.6999 18.8281C53.7803 17.7111 55.3379 17.2355 56.8669 17.2315Z" fill="#7FB19D"/>
<path d="M61.5862 31.1208L61.644 31.045C63.3231 28.7965 63.4634 24.9183 62.8804 22.257C62.7228 21.539 62.2412 20.7432 62.1556 20.131L62.2397 20.082C62.5105 20.4071 62.5961 20.9964 62.7949 21.392L62.8617 21.2667C63.5181 22.6277 63.5482 25.1786 63.3816 26.6544C63.3141 27.2569 63.1077 27.9209 63.1152 28.5158C62.8399 29.6135 62.5428 30.3098 61.8645 31.2198L61.5862 31.1208Z" fill="#6A9981"/>
<path d="M47.1297 28.4716C47.5521 28.2517 48.0886 28.1264 48.5447 27.9734L49.1052 28.7649C49.0909 28.957 49.0789 29.1566 49.0452 29.3464C48.8711 30.321 48.1508 30.9903 47.3886 31.541C46.7088 31.2258 46.0583 30.9295 45.5189 30.3923C45.1918 30.0667 44.9067 29.6533 44.9284 29.1723C44.9487 28.7312 45.2038 28.5429 45.5151 28.269C46.0681 28.0912 46.5948 28.3133 47.1297 28.4716Z" fill="#FA9B95"/>
<path d="M45.5151 28.269C46.0681 28.0912 46.5948 28.3133 47.1297 28.4716C46.8446 28.5571 46.5108 28.6126 46.2129 28.6006C45.8873 28.5886 45.7342 28.5098 45.5151 28.269Z" fill="#F8D0B3"/>
<path d="M66.4006 28.0829C66.7525 28.0469 66.9978 28.269 67.3377 28.2855C67.7143 28.3035 68.1187 28.2225 68.5006 28.215C68.7107 28.2105 68.9613 28.233 69.1046 28.4085C69.392 28.7612 69.3184 29.4852 69.3244 29.9174C68.8683 30.2542 68.4414 30.6354 67.9882 30.979C67.7248 31.1583 67.4217 31.2904 67.1366 31.4329C66.3826 30.9355 65.5168 30.3518 65.2114 29.4529C65.1169 29.1753 65.1101 28.915 65.2542 28.6509C65.474 28.2495 65.9985 28.1745 66.4006 28.0829Z" fill="#FA9B95"/>
<path d="M44.1144 33.0408C44.0971 33.0205 44.0769 33.0033 44.0619 32.9807C43.9846 32.8697 43.9741 32.7932 43.8488 32.7219C43.6642 32.6176 43.4879 32.5006 43.3911 32.304C42.454 30.3953 41.8883 25.0796 42.6281 23.0674C42.406 25.2169 42.412 27.1811 42.9687 29.2864C43.169 30.0419 43.4924 30.7884 43.6544 31.5492L43.9275 31.5695C44.5923 32.908 45.3613 34.1714 46.3359 35.3089C47.1868 36.1282 48.1396 36.9189 49.1772 37.4914C49.6634 37.7593 50.1961 37.9536 50.674 38.2289C51.0724 38.37 51.4693 38.5028 51.8812 38.5966C52.3772 38.7091 53.8424 38.8682 54.2003 39.0692L54.0938 39.172L54.2566 39.3363C53.964 39.3573 53.6526 39.2906 53.363 39.2516C52.1836 39.4286 50.8706 38.9552 49.8135 38.4773L49.7309 38.451C49.4954 38.3775 49.346 38.3077 49.1607 38.1396C48.4825 37.5252 47.6797 37.0735 47.0052 36.453C46.4875 35.9773 45.9375 35.4604 45.5046 34.9075C45.0237 34.2922 44.6223 33.6425 44.1144 33.0408Z" fill="#7FB19D"/>
<path d="M49.8136 38.4773C48.9328 37.3128 47.1043 36.7509 46.1973 35.3936L46.3361 35.3088C47.1869 36.1281 48.1397 36.9189 49.1774 37.4914C49.6635 37.7592 50.1962 37.9536 50.6742 38.2289C51.0726 38.37 51.4695 38.5028 51.8814 38.5965C52.3773 38.7091 53.8426 38.8681 54.2005 39.0692L54.0939 39.172L54.2567 39.3363C53.9641 39.3573 53.6528 39.2906 53.3631 39.2515C52.1837 39.4286 50.8707 38.9552 49.8136 38.4773Z" fill="#6A9981"/>
<path d="M42.6281 23.0673C42.9005 21.0601 43.1886 19.087 44.0401 17.2232C44.3658 16.5089 45.1603 14.7197 45.9548 14.4218L45.8843 14.5398C45.6773 14.8819 45.4109 15.1873 45.1941 15.5238C44.7784 16.1658 44.4273 16.8607 44.1197 17.5597C42.6341 20.9331 42.3693 25.7143 43.2276 29.2886C43.4114 30.0546 43.6432 30.8342 43.9276 31.5695L43.6545 31.5492C43.4924 30.7884 43.1691 30.0419 42.9688 29.2864C42.4121 27.1811 42.406 25.2169 42.6281 23.0673Z" fill="#6A9981"/>
<path d="M52.1633 30.8665C52.1948 30.8837 52.2264 30.901 52.2571 30.9197C52.4177 31.0135 52.3464 30.9715 52.5032 31.081C52.6375 31.1756 52.573 31.1471 52.714 31.1808L52.6428 31.093C53.2332 31.5102 53.8642 32.0676 54.5087 32.3835C54.7795 32.5163 55.3302 32.5366 55.5141 32.7196C56.8398 33.016 58.7635 33.0693 59.982 32.385L60.168 32.5081C58.8175 33.3701 56.9193 33.3116 55.4098 32.9777C55.3302 32.9605 55.2515 32.9417 55.1727 32.92C53.8567 32.5501 53.0494 31.8733 52.1633 30.8665Z" fill="#7FB19D"/>
<path d="M64.182 38.0053C63.9441 38.3662 62.151 38.8861 61.6483 38.9889C60.0157 39.3251 58.3538 39.5186 56.6867 39.4729C55.8787 39.4503 55.0601 39.334 54.2566 39.3363L54.0938 39.172L54.2003 39.0692C56.6965 39.2838 59.6458 39.3303 62.0857 38.7413C62.8112 38.5665 63.4932 38.2889 64.182 38.0053Z" fill="#447A62"/>
<path d="M59.8455 19.4507C60.1643 19.4743 60.3977 19.6185 60.6115 19.8548C61.7992 21.1662 61.9485 24.4524 61.8344 26.1517C61.8307 26.2095 61.8224 26.2673 61.8142 26.3251C61.6829 24.4771 61.9928 23.387 61.181 21.5818C61.0504 21.2922 60.9836 20.9823 60.7961 20.7223L60.8058 20.8926L60.8298 20.7988L60.7713 20.8308C61.31 21.5923 61.343 24.2971 61.2402 25.2432L61.1922 25.2146C61.2072 24.9213 61.2545 24.5829 61.2035 24.2933C61.1975 24.2588 61.19 24.2243 61.1839 24.1898C61.1329 22.4176 60.8921 20.9373 59.8455 19.4507Z" fill="#BECDBA"/>
<path d="M59.9819 32.385C60.5491 32.0001 61.0871 31.5912 61.586 31.1208L61.8644 31.2198C61.3767 31.8538 60.862 32.1427 60.168 32.5081L59.9819 32.385Z" fill="#7FB19D"/>
<path d="M6.39491 7.1471C6.8366 7.11559 7.22607 7.13689 7.62311 7.35312C8.18004 7.65631 8.62983 8.19298 8.78327 8.81196C9.29435 10.8739 7.42129 13.3689 6.43078 15.028C5.17969 14.8202 4.03702 14.4517 2.8813 13.9336C2.45792 13.7492 2.03709 13.5509 1.64252 13.3097C0.914449 12.8647 0.221645 12.1587 0.0447301 11.2987C-0.0800407 10.692 0.0588351 10.0183 0.428571 9.51887C0.785852 9.03622 1.32958 8.75412 1.91944 8.67616C2.90501 8.54591 3.56382 9.01776 4.29452 9.59322C4.42416 9.06045 4.55951 8.47126 4.8696 8.01299C5.25022 7.45043 5.76363 7.27997 6.39491 7.1471Z" fill="#FA9B95"/>
<path d="M53.1619 3.35355C53.1409 3.00789 53.0951 2.62405 53.1417 2.282C53.1694 2.07673 53.2474 1.95601 53.4088 1.82786C53.6518 1.74225 53.8889 1.74848 54.135 1.82591C54.3684 1.89944 54.5694 2.06067 54.673 2.28455C54.8028 2.56223 54.7825 2.90188 54.6782 3.18361C54.5627 3.49482 54.3211 3.78878 54.006 3.91085C53.6383 4.05333 53.1664 3.95084 52.819 3.79576C52.3554 3.58898 51.993 3.23545 51.8264 2.75145C51.6539 2.24854 51.6344 1.57764 51.9022 1.10249C52.1813 0.605887 52.645 0.172003 53.2122 0.0431059C53.7809 -0.0859415 54.3871 0.0857943 54.859 0.411114C56.4954 1.53825 56.4144 4.28134 56.728 6.03293L56.9898 6.21134L57.0243 6.0946C57.584 4.17525 57.4535 1.52377 59.4897 0.41839C59.9107 0.189781 60.5146 -0.0185673 60.9978 0.112881C61.4967 0.248606 61.9319 0.672584 62.1562 1.12763C62.3926 1.60713 62.4166 2.13735 62.229 2.63748C62.0482 3.11878 61.6408 3.66033 61.1509 3.86021C60.7682 4.01611 60.216 3.96945 59.8529 3.78338C59.6 3.65381 59.399 3.45266 59.3224 3.17281C59.2362 2.85686 59.3292 2.50319 59.4995 2.23159C59.6038 2.06525 59.8056 1.83671 60.0044 1.78509C60.231 1.7262 60.294 1.76326 60.4951 1.85592C60.7757 2.31149 61.0826 2.71019 61.3864 3.14325C61.0736 2.99372 60.4749 2.54985 60.1575 2.57993C59.9947 2.65939 60.0097 2.6164 59.9369 2.80277C59.9729 3.00092 60.0337 3.1779 60.1988 3.30598C60.3533 3.42535 60.5161 3.49452 60.7135 3.45941C61.1148 3.38798 61.3407 2.96895 61.5215 2.64671C61.6783 2.36603 61.6993 2.01791 61.7428 1.70369C61.4247 1.28039 61.0106 0.860904 60.4584 0.777249C60.1095 0.724279 59.7816 0.856253 59.5108 1.07128C58.0267 2.24906 57.7101 5.50226 57.554 7.27651C57.5248 7.60206 57.5113 7.92025 57.5518 8.24579C57.0971 8.21923 56.6274 8.24272 56.1713 8.24219C56.2471 6.48167 55.9605 3.34619 55.1419 1.82673C54.7743 1.14586 54.3766 0.8531 53.6466 0.650901L53.5663 0.672735L53.4343 0.710775C53.261 0.759693 53.0876 0.803584 52.9263 0.885664C52.5452 1.07946 52.3921 1.33403 52.2796 1.74158C52.1971 2.03944 52.2068 2.38592 52.3734 2.65482C52.561 2.9574 52.8596 3.24093 53.2099 3.31956C53.4898 3.38258 53.6699 3.38829 53.9182 3.23861C54.0105 3.08637 54.0307 2.98013 54.0135 2.80607C53.988 2.56006 53.8919 2.4079 53.7074 2.24667L53.5768 2.25777C53.5063 2.34098 53.474 2.39905 53.4523 2.50671C53.39 2.8213 53.3 3.06334 53.1619 3.35355Z" fill="url(#paint0_linear_64_2)"/>
<path d="M56.728 6.03293L56.9899 6.21134C57.0484 6.27039 57.0244 6.23273 57.0401 6.35367C57.0769 6.65093 57.0131 7.5923 56.8316 7.81919C56.8271 7.81199 56.8218 7.80508 56.8173 7.79743C56.602 7.37795 56.593 6.47454 56.728 6.03293Z" fill="#9ECEB9"/>
<path d="M75.8631 36.7051C76.5887 36.6721 77.1574 36.8964 77.6946 37.3796C78.3788 37.9963 78.847 38.9987 78.8507 39.9298C78.8522 40.2014 78.7915 40.524 78.5649 40.7033C78.0427 41.1152 76.9008 40.9922 76.2518 40.9877C75.1796 40.9892 74.1863 40.8226 73.1606 40.5158C73.2312 39.6514 73.409 38.6686 73.8862 37.9318C74.3693 37.186 75.0288 36.8852 75.8631 36.7051Z" fill="#F8D0B3"/>
<path d="M12.5917 3.32429C12.7815 3.31093 12.8846 3.2939 13.0584 3.38656C13.2661 3.61277 13.2711 3.94124 13.3155 4.23355C13.0209 4.74734 12.6771 5.23142 12.289 5.67895L11.5834 5.44727C11.0767 5.22856 10.7545 5.00566 10.5252 4.49082C10.4596 4.34346 10.4202 4.18478 10.4949 4.03315C10.7503 3.51516 11.9569 3.56063 12.4852 3.36465L12.5917 3.32429Z" fill="#FA9B95"/>
<path d="M21.6677 7.6788C22.0274 7.23224 22.7008 6.52218 23.3016 6.47086C23.5048 6.45353 23.6641 6.48271 23.8134 6.63021C23.9436 6.75874 23.9784 6.89349 23.9796 7.06695C23.5163 7.66162 22.4863 7.64999 22.5787 8.66714L22.4668 8.75567C22.239 8.72033 22.0165 8.64343 21.795 8.57943C21.8647 8.19717 21.8866 8.01837 21.6677 7.6788Z" fill="#7D5947"/>
<defs>
<linearGradient id="paint0_linear_64_2" x1="55.9327" y1="8.04352" x2="57.3957" y2="-0.387628" gradientUnits="userSpaceOnUse">
<stop stop-color="#99B3A5"/>
<stop offset="1" stop-color="#B9BFB7"/>
</linearGradient>
</defs>
</svg>
