<svg width="13" height="13" viewBox="0 0 13 13" fill="none" xmlns="http://www.w3.org/2000/svg">
<path fill-rule="evenodd" clip-rule="evenodd" d="M1.83337 5C1.83337 3.76232 2.32503 2.57533 3.2002 1.70016C4.07537 0.824993 5.26236 0.333328 6.50003 0.333328C7.73771 0.333328 8.9247 0.824993 9.79987 1.70016C10.675 2.57533 11.1667 3.76232 11.1667 5V7.50933L12.3814 9.93866C12.4373 10.0505 12.4637 10.1747 12.4581 10.2996C12.4525 10.4245 12.415 10.5459 12.3493 10.6522C12.2835 10.7586 12.1917 10.8463 12.0825 10.9072C11.9733 10.9681 11.8504 11 11.7254 11H9.0827C8.93441 11.5722 8.60032 12.0789 8.13288 12.4406C7.66543 12.8024 7.0911 12.9986 6.50003 12.9986C5.90897 12.9986 5.33464 12.8024 4.86719 12.4406C4.39975 12.0789 4.06566 11.5722 3.91737 11H1.2747C1.14969 11 1.02674 10.9681 0.917546 10.9072C0.80835 10.8463 0.716527 10.7586 0.650798 10.6522C0.58507 10.5459 0.547618 10.4245 0.542001 10.2996C0.536383 10.1747 0.562786 10.0505 0.618702 9.93866L1.83337 7.50933V5ZM5.34537 11C5.4624 11.2027 5.63071 11.371 5.8334 11.488C6.03608 11.605 6.266 11.6666 6.50003 11.6666C6.73407 11.6666 6.96399 11.605 7.16667 11.488C7.36936 11.371 7.53767 11.2027 7.6547 11H5.34537ZM6.50003 1.66666C5.61598 1.66666 4.76813 2.01785 4.14301 2.64297C3.51789 3.26809 3.1667 4.11594 3.1667 5V7.50933C3.16669 7.71622 3.11853 7.92027 3.02603 8.10533L2.24603 9.66666H10.7547L9.9747 8.10533C9.88198 7.92032 9.83359 7.71627 9.83337 7.50933V5C9.83337 4.11594 9.48218 3.26809 8.85706 2.64297C8.23194 2.01785 7.38409 1.66666 6.50003 1.66666Z" fill="black"/>
</svg>
